<svg width="24" height="24" viewBox="0 0 24 24" fill="none" xmlns="http://www.w3.org/2000/svg">
<path d="M12 22.75C6.07 22.75 1.25 17.93 1.25 12C1.25 6.07 6.07 1.25 12 1.25C17.93 1.25 22.75 6.07 22.75 12C22.75 17.93 17.93 22.75 12 22.75ZM12 2.75C6.9 2.75 2.75 6.9 2.75 12C2.75 17.1 6.9 21.25 12 21.25C17.1 21.25 21.25 17.1 21.25 12C21.25 6.9 17.1 2.75 12 2.75Z" fill="white"/>
<path d="M8.2257 10.2364C8.2257 10.0464 8.2957 9.85639 8.4457 9.70639C8.7357 9.41639 9.2157 9.41639 9.5057 9.70639L12.5057 12.7064L15.5057 9.70639C15.7957 9.41639 16.2757 9.41639 16.5657 9.70639C16.8557 9.99639 16.8557 10.4764 16.5657 10.7664L13.0357 14.2964C12.7457 14.5864 12.2657 14.5864 11.9757 14.2964L8.4457 10.7664C8.2957 10.6164 8.2257 10.4264 8.2257 10.2364Z" fill="white"/>
</svg>
