<svg width="58" height="24" viewBox="0 0 58 24" fill="none" xmlns="http://www.w3.org/2000/svg">
<path d="M3.1 20.6157C2.35333 20.6157 1.82 20.4691 1.5 20.1757C1.18 19.8824 1.02 19.4624 1.02 18.9157C1.02 18.6491 1.04 18.1957 1.08 17.5557C1.12 16.9024 1.17333 16.1624 1.24 15.3357C1.30667 14.5091 1.37333 13.6357 1.44 12.7157C1.50667 11.7957 1.57333 10.9291 1.64 10.1157C1.70667 9.30239 1.76 8.58906 1.8 7.97572C1.84 7.36239 1.86 6.94239 1.86 6.71572C1.86 6.51572 1.96667 6.41572 2.18 6.41572H3.28C4.02667 6.41572 4.54 6.56239 4.82 6.85572C5.11333 7.13572 5.26 7.55572 5.26 8.11572C5.26 8.18239 5.25333 8.24239 5.24 8.29572C5.24 8.34905 5.24 8.40905 5.24 8.47572L4.58 17.8157H8.18C8.26 17.8157 8.33333 17.8424 8.4 17.8957C8.46667 17.9357 8.5 18.0024 8.5 18.0957L8.42 19.2757C8.39333 19.6757 8.28 20.0024 8.08 20.2557C7.89333 20.4957 7.5 20.6157 6.9 20.6157H3.1ZM19.1914 6.19572C20.1647 6.19572 20.9981 6.33572 21.6914 6.61572C22.3847 6.88239 22.9514 7.28239 23.3914 7.81572C23.8314 8.33572 24.1514 8.97572 24.3514 9.73572C24.5514 10.4824 24.6514 11.3357 24.6514 12.2957C24.6514 12.8291 24.6114 13.4091 24.5314 14.0357C24.4647 14.6624 24.3314 15.2957 24.1314 15.9357C23.9447 16.5624 23.6847 17.1691 23.3514 17.7557C23.0181 18.3424 22.5847 18.8624 22.0514 19.3157C21.5314 19.7691 20.9047 20.1357 20.1714 20.4157C19.4381 20.6824 18.5714 20.8157 17.5714 20.8157C16.4647 20.8157 15.5447 20.6491 14.8114 20.3157C14.0914 19.9824 13.5114 19.5357 13.0714 18.9757C12.6447 18.4024 12.3381 17.7291 12.1514 16.9557C11.9781 16.1824 11.8914 15.3557 11.8914 14.4757C11.8914 13.4357 12.0114 12.4224 12.2514 11.4357C12.4914 10.4357 12.8914 9.54906 13.4514 8.77572C14.0247 8.00239 14.7781 7.38239 15.7114 6.91572C16.6447 6.43572 17.8047 6.19572 19.1914 6.19572ZM18.7714 9.29572C18.3047 9.29572 17.8981 9.38239 17.5514 9.55572C17.2181 9.71572 16.9314 9.93572 16.6914 10.2157C16.4647 10.4957 16.2781 10.8091 16.1314 11.1557C15.9981 11.5024 15.8914 11.8624 15.8114 12.2357C15.7314 12.5957 15.6781 12.9491 15.6514 13.2957C15.6247 13.6291 15.6114 13.9291 15.6114 14.1957C15.6114 15.4091 15.8114 16.2957 16.2114 16.8557C16.6247 17.4157 17.2047 17.6957 17.9514 17.6957C18.5647 17.6957 19.0647 17.5024 19.4514 17.1157C19.8381 16.7157 20.1381 16.2424 20.3514 15.6957C20.5781 15.1357 20.7314 14.5624 20.8114 13.9757C20.8914 13.3757 20.9314 12.8691 20.9314 12.4557C20.9314 11.4824 20.7647 10.7157 20.4314 10.1557C20.0981 9.58239 19.5447 9.29572 18.7714 9.29572ZM37.6102 20.6157C36.9168 20.6157 36.4168 20.4757 36.1102 20.1957C35.8168 19.9024 35.6568 19.5424 35.6302 19.1157C35.4835 19.5691 35.1702 19.9691 34.6902 20.3157C34.2235 20.6491 33.5435 20.8157 32.6502 20.8157C32.1302 20.8157 31.6235 20.7157 31.1302 20.5157C30.6368 20.3024 30.1968 19.9557 29.8102 19.4757C29.4235 18.9957 29.1102 18.3557 28.8702 17.5557C28.6435 16.7557 28.5302 15.7624 28.5302 14.5757C28.5302 14.1224 28.5568 13.6024 28.6102 13.0157C28.6635 12.4157 28.7702 11.8091 28.9302 11.1957C29.1035 10.5691 29.3435 9.96239 29.6502 9.37572C29.9702 8.77572 30.3835 8.24239 30.8902 7.77572C31.4102 7.30906 32.0435 6.93572 32.7902 6.65572C33.5368 6.36239 34.4302 6.21572 35.4702 6.21572C36.1502 6.21572 36.7568 6.28906 37.2902 6.43572C37.8368 6.58239 38.2968 6.78906 38.6702 7.05572C39.0568 7.32239 39.3502 7.64906 39.5502 8.03572C39.7635 8.42239 39.8702 8.85572 39.8702 9.33572C39.8702 10.1091 39.6168 10.6957 39.1102 11.0957C38.6035 11.4824 37.8902 11.6757 36.9702 11.6757C36.6768 11.6757 36.4968 11.6557 36.4302 11.6157C36.3768 11.5624 36.3435 11.4624 36.3302 11.3157C36.3035 11.0757 36.2835 10.8357 36.2702 10.5957C36.2702 10.3557 36.2368 10.1357 36.1702 9.93572C36.1168 9.73572 36.0168 9.57572 35.8702 9.45572C35.7235 9.33572 35.4902 9.27572 35.1702 9.27572C34.5168 9.27572 33.9968 9.46239 33.6102 9.83572C33.2235 10.2091 32.9302 10.6624 32.7302 11.1957C32.5302 11.7291 32.4035 12.2824 32.3502 12.8557C32.2968 13.4157 32.2702 13.8891 32.2702 14.2757C32.2702 14.9157 32.3102 15.4557 32.3902 15.8957C32.4702 16.3224 32.5835 16.6757 32.7302 16.9557C32.8902 17.2224 33.0768 17.4157 33.2902 17.5357C33.5035 17.6424 33.7502 17.6957 34.0302 17.6957C34.5368 17.6957 34.9635 17.5891 35.3102 17.3757C35.6568 17.1624 35.8635 16.7757 35.9302 16.2157L36.0502 15.0957C36.0902 14.7091 36.1435 14.3957 36.2102 14.1557C36.2768 13.9024 36.4368 13.7757 36.6902 13.7757H37.7902C38.1235 13.7757 38.3902 13.8157 38.5902 13.8957C38.8035 13.9624 38.9635 14.0824 39.0702 14.2557C39.1902 14.4157 39.2702 14.6291 39.3102 14.8957C39.3502 15.1624 39.3702 15.4891 39.3702 15.8757C39.3702 16.1424 39.3568 16.4957 39.3302 16.9357C39.3168 17.3757 39.2902 17.8224 39.2502 18.2757C39.2235 18.7291 39.1902 19.1491 39.1502 19.5357C39.1102 19.9091 39.0768 20.1691 39.0502 20.3157C39.0235 20.4357 38.9902 20.5157 38.9502 20.5557C38.9102 20.5957 38.8302 20.6157 38.7102 20.6157H37.6102ZM51.0031 6.19572C51.9765 6.19572 52.8098 6.33572 53.5031 6.61572C54.1965 6.88239 54.7631 7.28239 55.2031 7.81572C55.6431 8.33572 55.9631 8.97572 56.1631 9.73572C56.3631 10.4824 56.4631 11.3357 56.4631 12.2957C56.4631 12.8291 56.4231 13.4091 56.3431 14.0357C56.2765 14.6624 56.1431 15.2957 55.9431 15.9357C55.7565 16.5624 55.4965 17.1691 55.1631 17.7557C54.8298 18.3424 54.3965 18.8624 53.8631 19.3157C53.3431 19.7691 52.7165 20.1357 51.9831 20.4157C51.2498 20.6824 50.3831 20.8157 49.3831 20.8157C48.2765 20.8157 47.3565 20.6491 46.6231 20.3157C45.9031 19.9824 45.3231 19.5357 44.8831 18.9757C44.4565 18.4024 44.1498 17.7291 43.9631 16.9557C43.7898 16.1824 43.7031 15.3557 43.7031 14.4757C43.7031 13.4357 43.8231 12.4224 44.0631 11.4357C44.3031 10.4357 44.7031 9.54906 45.2631 8.77572C45.8365 8.00239 46.5898 7.38239 47.5231 6.91572C48.4565 6.43572 49.6165 6.19572 51.0031 6.19572ZM50.5831 9.29572C50.1165 9.29572 49.7098 9.38239 49.3631 9.55572C49.0298 9.71572 48.7431 9.93572 48.5031 10.2157C48.2765 10.4957 48.0898 10.8091 47.9431 11.1557C47.8098 11.5024 47.7031 11.8624 47.6231 12.2357C47.5431 12.5957 47.4898 12.9491 47.4631 13.2957C47.4365 13.6291 47.4231 13.9291 47.4231 14.1957C47.4231 15.4091 47.6231 16.2957 48.0231 16.8557C48.4365 17.4157 49.0165 17.6957 49.7631 17.6957C50.3765 17.6957 50.8765 17.5024 51.2631 17.1157C51.6498 16.7157 51.9498 16.2424 52.1631 15.6957C52.3898 15.1357 52.5431 14.5624 52.6231 13.9757C52.7031 13.3757 52.7431 12.8691 52.7431 12.4557C52.7431 11.4824 52.5765 10.7157 52.2431 10.1557C51.9098 9.58239 51.3565 9.29572 50.5831 9.29572Z" fill="white"/>
</svg>
